<svg viewBox="0 0 89.5898 27" xmlns="http://www.w3.org/2000/svg" xmlns:xlink="http://www.w3.org/1999/xlink" width="89.589844" height="27.000000" fill="none" customFrame="#000000">
	<defs>
		<clipPath id="clipPath_0">
			<rect width="27.000000" height="27.000000" x="0.000000" y="0.000000" fill="rgb(255,255,255)" />
		</clipPath>
	</defs>
	<g id="logo">
		<g id="box 1" clip-path="url(#clipPath_0)" customFrame="url(#clipPath_0)">
			<rect id="box 1" width="27.000000" height="27.000000" x="0.000000" y="0.000000" fill="rgb(255,255,255)" fill-opacity="0" />
			<g id="Group">
				<path id="Vector" d="M26.9947 6.65895C26.9632 6.36854 26.7827 6.11151 26.513 5.98563L13.8567 0.0793852C13.6306 -0.0261362 13.3693 -0.0261362 13.1431 0.0793852L0.486896 5.98563C0.217213 6.11151 0.0367559 6.36848 0.00516797 6.65895C0.00448242 6.66501 0 6.7458 0 6.75023L0 21.094C0 21.439 0.210041 21.7493 0.530402 21.8773L13.1867 26.9398C13.2872 26.9801 13.3936 27.0002 13.5 27.0002C13.6064 27.0002 13.7128 26.9801 13.8133 26.9398L26.4696 21.8773C26.79 21.7493 27 21.439 27 21.094L27 6.75023C27 6.7458 26.9954 6.66496 26.9947 6.65895ZM13.5 1.77506L24.0334 6.69064L19.9774 8.31307L9.24576 3.7604L13.5 1.77506ZM7.18822 4.72059L17.7533 9.20264L13.5 10.904L2.96662 6.69064L7.18822 4.72059ZM1.6875 7.99645L12.6562 12.3839L12.6562 24.9102L1.6875 20.5227L1.6875 7.99645ZM14.3438 24.9103L14.3438 12.3839L25.3125 7.99645L25.3125 20.5227L14.3438 24.9103Z" fill="rgb(9.73958,20.4531,58.4375)" fill-rule="nonzero" />
			</g>
		</g>
		<path id="Форма 1" d="M61.875 15.9805Q61.875 19.0273 60.5742 20.7383Q60.0652 21.4032 59.3984 21.8079Q58.3609 22.4375 56.9414 22.4375Q55.8337 22.4375 54.9659 21.9811Q54.218 21.5878 53.6484 20.8555L53.4961 22.2031L50.4492 22.2031L50.4492 4.20312L53.8359 4.20312L53.8359 10.6602Q54.3263 10.0865 54.9458 9.75283L54.946 9.75277L54.946 9.75274Q55.8072 9.28906 56.918 9.28906Q58.294 9.28906 59.3156 9.89082L59.3157 9.89084L59.3158 9.89091Q60.0167 10.3038 60.5508 11Q61.875 12.6992 61.875 15.793L61.875 15.9805ZM64.1484 5.39096Q63.9492 5.76332 63.9492 6.24219Q63.9492 6.72988 64.1542 7.10577L64.1543 7.10584Q64.2744 7.32601 64.4648 7.50781Q64.5691 7.60509 64.6861 7.68315L64.6862 7.68319L64.6863 7.68327Q65.1614 8 65.8477 8Q66.5429 8 67.0136 7.67494L67.0138 7.67485Q67.1222 7.59995 67.2188 7.50781Q67.4248 7.31548 67.5504 7.0802L67.5505 7.07992Q67.7461 6.71321 67.7461 6.24219Q67.7461 5.78021 67.5564 5.41738Q67.4334 5.18196 67.2305 4.98828Q67.1445 4.90625 67.0488 4.83789Q66.5703 4.49609 65.8477 4.49609Q65.0978 4.49609 64.6123 4.85439L64.6122 4.85452L64.6121 4.85459Q64.5287 4.91615 64.4531 4.98828Q64.266 5.17104 64.1484 5.39096ZM37.9922 18.6875L44.1562 18.6875L45.3398 22.2031L49.0781 22.2031L42.6914 5.14062L39.4336 5.14062L33.082 22.2031L36.8203 22.2031L37.9922 18.6875ZM74.4023 6.40625L74.4023 9.52344L76.5703 9.52344L76.5703 12.0078L74.4023 12.0078L74.4023 18.3359Q74.4023 19.0391 74.6719 19.3438Q74.9414 19.6484 75.7031 19.6484Q76.2656 19.6484 76.6992 19.5664L76.6992 22.1328Q76.3426 22.2419 75.9784 22.3119Q75.3255 22.4375 74.6484 22.4375Q72.8854 22.4375 71.9776 21.5564Q71.0511 20.657 71.0156 18.8398L71.0156 12.0078L69.1641 12.0078L69.1641 9.52344L71.0156 9.52344L71.0156 6.40625L74.4023 6.40625ZM78.3047 12.3828Q77.5781 13.8594 77.5781 15.7461L77.5781 15.8984Q77.5781 18.6173 78.8954 20.3127Q79.043 20.5026 79.207 20.6797Q79.696 21.2036 80.2829 21.5714Q81.665 22.4375 83.5898 22.4375Q85.5235 22.4375 86.9036 21.5634Q87.4807 21.198 87.9609 20.6797Q88.2157 20.403 88.4305 20.0982Q89.5898 18.4539 89.5898 15.9922L89.5664 15.125Q89.4115 12.8983 88.2729 11.4395Q88.0332 11.1324 87.75 10.8594Q87.3029 10.4252 86.7833 10.1111Q85.4233 9.28906 83.5664 9.28906Q81.8889 9.28906 80.586 9.9877Q80.4873 10.0407 80.3906 10.0977Q79.8766 10.4034 79.4531 10.8046Q78.7565 11.4645 78.3047 12.3828ZM43.207 15.8398L38.9414 15.8398L41.0625 9.45312L43.207 15.8398ZM64.1484 22.2031L67.5469 22.2031L67.5469 9.52344L64.1484 9.52344L64.1484 22.2031ZM81.6445 18.7578Q80.9648 17.7969 80.9648 15.9922Q80.9648 13.9648 81.6445 13.0039Q81.948 12.5696 82.3637 12.3292Q82.8789 12.0312 83.5664 12.0312Q84.2669 12.0312 84.7919 12.3348Q85.2066 12.5747 85.5117 13.0039Q86.2031 13.9766 86.2031 15.7461Q86.2031 17.8203 85.5117 18.7695Q85.2125 19.1753 84.8122 19.4055Q84.2877 19.707 83.5898 19.707Q82.8356 19.707 82.2894 19.3699Q81.9192 19.1413 81.6445 18.7578ZM58.4883 15.7344Q58.4883 13.8125 57.8789 12.9336Q57.6518 12.6016 57.3415 12.3934L57.3413 12.3932Q56.8194 12.043 56.0625 12.043Q55.1107 12.043 54.508 12.5016L54.508 12.5017Q54.0867 12.8223 53.8359 13.3672L53.8359 18.3711Q54.0929 18.9239 54.5225 19.2479Q55.1311 19.707 56.0859 19.707Q56.8662 19.707 57.392 19.3413Q57.9718 18.9379 58.2422 18.0898Q58.4883 17.3164 58.4883 15.7344Z" fill="rgb(9.73958,20.4531,58.4375)" fill-rule="evenodd" />
	</g>
</svg>
