<svg width="10" height="10" viewBox="0 0 10 10" fill="none" xmlns="http://www.w3.org/2000/svg">
<path d="M9.97393 3.62139C9.90847 3.4189 9.72887 3.27508 9.51639 3.25593L6.63011 2.99385L5.4888 0.322503C5.40465 0.126728 5.21299 0 5.00005 0C4.78711 0 4.59545 0.126727 4.5113 0.322961L3.36999 2.99385L0.483257 3.25593C0.271154 3.27554 0.0920116 3.4189 0.0261682 3.62139C-0.0396751 3.82387 0.0211327 4.04597 0.181583 4.18597L2.36326 6.09932L1.71994 8.93318C1.67286 9.14155 1.75374 9.35693 1.92662 9.4819C2.01955 9.54904 2.12827 9.58322 2.23791 9.58322C2.33244 9.58322 2.42621 9.55774 2.51036 9.50739L5.00005 8.01939L7.48882 9.50739C7.67094 9.61695 7.90052 9.60695 8.07302 9.4819C8.24598 9.35655 8.32678 9.14109 8.27971 8.93318L7.63638 6.09932L9.81806 4.18636C9.97851 4.04597 10.0398 3.82426 9.97393 3.62139Z" fill="#FFC107"/>
</svg>
